<svg width="24" height="32" viewBox="0 0 24 32" fill="none" xmlns="http://www.w3.org/2000/svg">
<g clip-path="url(#clip0_1899_692)">
<path d="M20.3872 6.5453C19.8942 5.88744 19.3088 5.36557 18.6646 5.00952C18.0203 4.65347 17.3297 4.47021 16.6323 4.47021C15.9349 4.47021 15.2443 4.65347 14.6001 5.00952C13.9558 5.36557 13.3704 5.88744 12.8774 6.5453L11.8542 7.90995L10.831 6.5453C9.83513 5.21709 8.48444 4.4709 7.07607 4.4709C5.6677 4.4709 4.31702 5.21709 3.32115 6.5453C2.32528 7.87351 1.76581 9.67495 1.76581 11.5533C1.76581 13.4317 2.32528 15.2331 3.32115 16.5614L4.34434 17.926L11.8542 27.9421L19.364 17.926L20.3872 16.5614C20.8805 15.9038 21.2718 15.1231 21.5387 14.2638C21.8057 13.4045 21.9431 12.4835 21.9431 11.5533C21.9431 10.6232 21.8057 9.70216 21.5387 8.84287C21.2718 7.98357 20.8805 7.20285 20.3872 6.5453V6.5453Z" stroke="#43B028" stroke-width="2" stroke-linecap="round" stroke-linejoin="round"/>
</g>
<defs>
<clipPath id="clip0_1899_692">
<rect width="23.1666" height="30.8979" fill="white" transform="translate(0.270874 0.610352)"/>
</clipPath>
</defs>
</svg>
