<svg width="24" height="32" viewBox="0 0 24 32" fill="none" xmlns="http://www.w3.org/2000/svg">
<path d="M6.4236 3.18506L3.52777 8.3347V26.3585C3.52777 27.0413 3.73117 27.6963 4.09322 28.1791C4.45527 28.662 4.94631 28.9333 5.45832 28.9333H18.9722C19.4842 28.9333 19.9752 28.662 20.3373 28.1791C20.6993 27.6963 20.9027 27.0413 20.9027 26.3585V8.3347L18.0069 3.18506H6.4236Z" stroke="#43B028" stroke-width="2" stroke-linecap="round" stroke-linejoin="round"/>
<path d="M3.52777 8.33496H20.9027" stroke="#43B028" stroke-width="2" stroke-linecap="round" stroke-linejoin="round"/>
<path d="M16.0764 13.4844C16.0764 14.8501 15.6696 16.16 14.9455 17.1257C14.2214 18.0915 13.2393 18.634 12.2153 18.634C11.1913 18.634 10.2092 18.0915 9.48508 17.1257C8.76098 16.16 8.35419 14.8501 8.35419 13.4844" stroke="#43B028" stroke-width="2" stroke-linecap="round" stroke-linejoin="round"/>
</svg>
